<svg id="Layer_1" height="512" viewBox="0 0 128 128" width="512" xmlns="http://www.w3.org/2000/svg" data-name="Layer 1"><path d="m20.708 46.619h86.792v21.798h-86.792z" fill="#fc3e81"/><path d="m107.5 46.619h-34.8c-3.261 6.239-3.095 14.6 5.633 21.8h29.167z" fill="#e0176d"/><rect fill="#1fca74" height="18.536" rx="9.268" width="69" x="46.421" y="28.083"/><path d="m80.921 38.5a18.723 18.723 0 0 0 -8.221 8.119h33.456a9.268 9.268 0 0 0 0-18.536h-17.823s1.341 6.25-7.412 10.417z" fill="#1ab250"/><path d="m12.579 51.25h8.129v6.268h-8.129z" fill="#fc3e81"/><path d="m73.015 73.581h5.33v14.333h-5.33z" fill="#fbbe2c" transform="matrix(0 -1 1 0 -5.068 156.428)"/><path d="m107.5 68.417h-29.171l4.711 31.5h19.75l-3.772-24.872z" fill="#1fca74"/><path d="m68.513 72.717a1.75 1.75 0 0 0 -1.75 1.75v12.562a1.75 1.75 0 0 0 3.5 0v-12.562a1.75 1.75 0 0 0 -1.75-1.75z" fill="#475a61"/><path d="m55.688 28.083h6.5v18.536h-6.5z" fill="#fed943"/><path d="m101 28.083h6.5v18.536h-6.5z" fill="#fbbe2c"/><path d="m80.921 57.518h-60.213v-10.899h86.792z" fill="#fed943"/><path d="m71.1 57.518h9.823l26.579-10.9h-34.802a16.022 16.022 0 0 0 -1.6 10.9z" fill="#fbbe2c"/><path d="m102.79 99.917-3.772-24.872 8.482-6.628h-29.171c13.837 11.417 4.71 31.5 4.71 31.5z" fill="#1ab250"/><g fill="#630000"><path d="m68.513 29.833h.8a1.75 1.75 0 0 0 0-3.5h-.8a1.75 1.75 0 0 0 0 3.5z"/><path d="m117.171 37.352a11.027 11.027 0 0 0 -9.248-10.863 1.747 1.747 0 0 0 -.279-.043 11.005 11.005 0 0 0 -1.491-.113h-31.028a1.75 1.75 0 0 0 0 3.5h24.125v10a1.75 1.75 0 0 0 3.5 0v-10h3v15.036h-41.812v-9.911a1.75 1.75 0 0 0 -3.5 0v9.911h-3v-15.036h4.75a1.75 1.75 0 0 0 0-3.5h-6.5a11 11 0 0 0 -8.032 18.536h-26.948a1.75 1.75 0 0 0 -1.75 1.75v2.881h-6.379a1.75 1.75 0 0 0 -1.75 1.75v6.268a1.75 1.75 0 0 0 1.75 1.75h3.064a1.75 1.75 0 0 0 0-3.5h-1.314v-2.768h4.629v15.417a1.75 1.75 0 0 0 1.75 1.75h74.565a1.75 1.75 0 0 0 0-3.5h-72.815v-7.4h6.209a1.75 1.75 0 0 0 0-3.5h-6.209v-7.4h76.161l-18.043 7.4h-39.576a1.75 1.75 0 0 0 0 3.5h39.921a1.761 1.761 0 0 0 .664-.131l24.165-9.909v18.337l-7.81 6.1a1.75 1.75 0 0 0 -.653 1.642l3.468 22.859h-16.207l-3.67-24.54a1.75 1.75 0 1 0 -3.461.518l.327 2.188h-7.481v-1.864a1.75 1.75 0 0 0 -3.5 0v12.562a1.75 1.75 0 0 0 3.5 0v-1.866h8.8l2.245 15.013a1.749 1.749 0 0 0 1.73 1.491h19.75a1.751 1.751 0 0 0 1.73-2.013l-3.618-23.86 7.676-6c.007-.006.01-.017.017-.023a1.739 1.739 0 0 0 .656-1.356v-20.5a11.032 11.032 0 0 0 7.922-10.563zm-46.908 44.311v-1.83h8l.274 1.83zm-16.325-51.616v14.608a7.509 7.509 0 0 1 0-14.608zm55.312 14.147v-13.685a7.506 7.506 0 0 1 0 13.685z"/><path d="m34.5 55.768a1.75 1.75 0 0 0 0 3.5h.917a1.75 1.75 0 0 0 0-3.5z"/></g></svg>